<svg width="30" height="30" viewBox="0 0 30 30" fill="none" xmlns="http://www.w3.org/2000/svg">
<rect width="30" height="30" rx="15" fill="#FCFCFD"/>
<path d="M20.8933 10.0733C20.5528 9.73267 20.1485 9.46243 19.7036 9.27805C19.2586 9.09368 18.7817 8.99878 18.3 8.99878C17.8183 8.99878 17.3414 9.09368 16.8964 9.27805C16.4515 9.46243 16.0472 9.73267 15.7067 10.0733L15 10.78L14.2933 10.0733C13.6055 9.38553 12.6727 8.99914 11.7 8.99914C10.7273 8.99914 9.79446 9.38553 9.10666 10.0733C8.41887 10.7611 8.03247 11.694 8.03247 12.6667C8.03247 13.6394 8.41887 14.5722 9.10666 15.26L9.81333 15.9667L15 21.1533L20.1867 15.9667L20.8933 15.26C21.234 14.9195 21.5042 14.5152 21.6886 14.0702C21.873 13.6253 21.9679 13.1483 21.9679 12.6667C21.9679 12.185 21.873 11.7081 21.6886 11.2631C21.5042 10.8181 21.234 10.4138 20.8933 10.0733V10.0733Z" stroke="#667085" stroke-width="1.4" stroke-linecap="round" stroke-linejoin="round"/>
</svg>
