<svg width="48" height="51" viewBox="0 0 48 51" fill="none" xmlns="http://www.w3.org/2000/svg">
<path fill-rule="evenodd" clip-rule="evenodd" d="M31.0317 7.46759C30.4243 7.08976 29.7628 6.79133 29.0617 6.58537C27.9575 6.26099 26.6384 6.26099 24.0001 6.26099C21.3618 6.26099 20.0427 6.26099 18.9385 6.58537C16.6144 7.26815 14.7248 8.96722 13.7998 11.206C13.3603 12.2696 13.2206 13.5813 12.9413 16.2048L12.3574 21.6878C12.1794 23.3596 12.0904 24.1955 11.8327 24.9892C11.575 25.783 11.1559 26.5117 10.3179 27.9692L7.72335 32.4814C6.95727 33.8137 6.57423 34.4799 6.86305 34.9791C7.15187 35.4784 7.9203 35.4784 9.45716 35.4784H38.5431C40.0799 35.4784 40.8483 35.4784 41.1372 34.9791C41.426 34.4799 41.0429 33.8137 40.2769 32.4814L37.6823 27.9692C36.8443 26.5117 36.4252 25.783 36.1675 24.9892C35.9098 24.1955 35.8208 23.3596 35.6428 21.6878L35.6428 21.6878L35.4282 19.6726C31.7301 19.3717 29.0001 16.1763 29.0001 12.5219C29.0001 10.5884 29.7643 8.78339 31.0317 7.46759ZM33.238 9.50284C32.4753 10.2629 32.0001 11.3345 32.0001 12.5219C32.0001 14.5041 33.3243 16.1635 35.0999 16.5896L35.0589 16.2048C34.7796 13.5813 34.6399 12.2696 34.2004 11.206C33.9479 10.5948 33.6235 10.0239 33.238 9.50284Z" fill="#F0F0F0"/>
<path d="M18 35.4782C18 36.3003 18.1552 37.1145 18.4567 37.8741C18.7583 38.6337 19.2002 39.3239 19.7574 39.9053C20.3145 40.4866 20.9759 40.9478 21.7039 41.2624C22.4319 41.5771 23.2121 41.739 24 41.739C24.7879 41.739 25.5681 41.5771 26.2961 41.2624C27.0241 40.9478 27.6855 40.4866 28.2426 39.9053C28.7998 39.3239 29.2417 38.6337 29.5433 37.8741C29.8448 37.1145 30 36.3003 30 35.4782L24 35.4782H18Z" fill="#F0F0F0" stroke="white" stroke-width="2" stroke-linecap="round"/>
<path d="M36 17.1957C38.5051 17.1957 40.5 15.0829 40.5 12.5218C40.5 9.96075 38.5051 7.8479 36 7.8479C33.4949 7.8479 31.5 9.96075 31.5 12.5218C31.5 15.0829 33.4949 17.1957 36 17.1957Z" fill="#F0F0F0" stroke="white"/>
</svg>
